<?xml version="1.0" encoding="UTF-8" standalone="no"?>
<!-- Created with Inkscape (http://www.inkscape.org/) -->

<svg
   version="1.1"
   id="svg2"
   xml:space="preserve"
   width="73.333336"
   height="73.333336"
   viewBox="0 0 73.333336 73.333336"
   sodipodi:docname="vhz-dis_logo.svg"
   inkscape:version="1.1.1 (3bf5ae0d25, 2021-09-20)"
   xmlns:inkscape="http://www.inkscape.org/namespaces/inkscape"
   xmlns:sodipodi="http://sodipodi.sourceforge.net/DTD/sodipodi-0.dtd"
   xmlns="http://www.w3.org/2000/svg"
   xmlns:svg="http://www.w3.org/2000/svg"><defs
     id="defs6" /><sodipodi:namedview
     id="namedview4"
     pagecolor="#ffffff"
     bordercolor="#666666"
     borderopacity="1.0"
     inkscape:pageshadow="2"
     inkscape:pageopacity="0.0"
     inkscape:pagecheckerboard="0"
     showgrid="false"
     inkscape:zoom="4.9030372"
     inkscape:cx="142.56469"
     inkscape:cy="36.609961"
     inkscape:window-width="1920"
     inkscape:window-height="1011"
     inkscape:window-x="0"
     inkscape:window-y="0"
     inkscape:window-maximized="1"
     inkscape:current-layer="g8" /><g
     id="g8"
     inkscape:groupmode="layer"
     inkscape:label="ink_ext_XXXXXX"
     transform="matrix(1.3333333,0,0,-1.3333333,0,73.333333)"><g
       id="g10"
       transform="scale(0.1)"><path
         d="m 26.207,383.313 c 37.7657,85.476 118.531,147.98 214.602,159.808 -7.129,-9.641 -14.192,-19.445 -21.254,-29.262 -21.594,-30.007 -43.231,-60.082 -66.625,-84.265 v 0.09 C 118.867,394.473 79.4336,372.129 26.207,383.313"
         style="fill:#114781;fill-opacity:1;fill-rule:evenodd;stroke:none"
         id="path18" /><path
         d="m 544.633,277.988 c 0.015,-1.175 0.047,-2.355 0.047,-3.535 0,-149.101 -121.606,-270.70691 -270.707,-270.70691 -4.172,0 -8.313,0.11329 -12.438,0.30079 33.344,10.25782 62.324,32.05862 89.07,59.70702 25.122,25.9688 47.938,57.6801 70.708,89.3161 37.917,52.7 75.707,105.215 123.32,124.918"
         style="fill:#114781;fill-opacity:1;fill-rule:evenodd;stroke:none"
         id="path20" /><path
         d="m 515.449,396.59 c 11.305,-22.235 19.617,-46.227 24.43,-71.438 C 475.234,305.383 430.016,242.535 384.637,179.469 363.172,149.637 341.66,119.738 318.008,95.2891 256.852,32.0742 178.387,10.2617 33.8672,149.688 c -1.8711,3.582 -3.6641,7.21 -5.375,10.886 123.0778,-85.6677 201.7418,-52.906 267.0818,14.645 25.121,25.965 47.942,57.676 70.711,89.32 44.528,61.883 88.879,123.512 149.164,132.051"
         style="fill:#114781;fill-opacity:1;fill-rule:evenodd;stroke:none"
         id="path22" /><path
         d="M 427.051,497.5 C 450.887,481.078 471.973,460.949 489.48,437.945 422.352,419.824 376.066,355.496 329.609,290.934 308.141,261.102 286.629,231.207 262.977,206.754 205.77,147.617 133.41,124.73 6.00391,236.156 5.23047,241.578 4.60938,247.051 4.16406,252.574 109.93,192.266 180.809,224.926 240.547,286.68 c 25.121,25.968 47.941,57.679 70.707,89.32 35.902,49.895 71.687,99.625 115.797,121.5"
         style="fill:#f68512;fill-opacity:1;fill-rule:evenodd;stroke:none"
         id="path24" /><path
         d="m 298.602,544.023 c 28.937,-2.628 56.586,-9.843 82.211,-20.914 C 340.473,493.961 307.566,448.238 274.578,402.398 253.113,372.566 231.602,342.668 207.949,318.219 159.387,268.02 99.9141,243.949 5.12109,305.961 c 1.27344,10.852 3.17579,21.516 5.69921,31.941 73.0899,-19.316 127.3947,11.332 174.7067,60.243 v 0.089 c 25.375,26.235 48.063,57.766 70.703,89.231 13.977,19.422 27.934,38.82 42.372,56.558"
         style="fill:#114781;fill-opacity:1;fill-rule:evenodd;stroke:none"
         id="path26" /></g></g></svg>
